<?xml version="1.0" encoding="UTF-8" standalone="no"?>
<svg xmlns:rdf="http://www.w3.org/1999/02/22-rdf-syntax-ns#" xmlns="http://www.w3.org/2000/svg" xml:space="preserve" height="146.63" viewBox="0 0 200.36866 146.62648" width="200.37" version="1.1" xmlns:cc="http://creativecommons.org/ns#" xmlns:xlink="http://www.w3.org/1999/xlink" xmlns:dc="http://purl.org/dc/elements/1.1/"><g transform="matrix(1.25 0 0 -1.25 -757.61 735.52)"><g transform="translate(0.798 0.798)"><path d="m634.48 524.89h23.047v-33.794h-23.047v33.794zm0 41.95h23.047v-23.433h-23.047v23.433zm49.342 18.388v-18.388h8.4156v-82.864l11.522-11.266h39.75l11.266 11.266v82.864h8.4141v18.388h-35.217v-18.388h8.4172v-75.744h-25.766v75.744h8.4141v18.388h-35.216zm-76.144 0v-18.388h8.4156v-75.744h-8.4156v-18.386h56.712l11.522 11.653v42.858l-8.1562 8.4156 8.1562 8.1562v30.297l-11.395 11.138h-56.839z" fill="#c00"/><path d="m607.68 585.22v-18.388h8.4156v-75.744h-8.4156v-18.386h56.712l11.522 11.653v42.858l-8.1562 8.4156 8.1562 8.1562v30.297l-11.395 11.138h-56.839zm76.144 0v-18.388h8.4156v-82.864l11.522-11.266h39.75l11.266 11.266v82.864h8.4141v18.388h-35.217v-18.388h8.4172v-75.744h-25.766v75.744h8.4141v18.388h-35.216zm-49.342-18.388h23.048v-23.433h-23.048v23.433zm0-41.95h23.048v-33.794h-23.048v33.794z" stroke="#960d32" stroke-width="3.184" fill="none"/></g></g></svg>
