<?xml version="1.0" encoding="UTF-8" standalone="no"?>
<svg
   xmlns:dc="http://purl.org/dc/elements/1.1/"
   xmlns:cc="http://creativecommons.org/ns#"
   xmlns:rdf="http://www.w3.org/1999/02/22-rdf-syntax-ns#"
   xmlns:svg="http://www.w3.org/2000/svg"
   xmlns="http://www.w3.org/2000/svg"
   viewBox="0 0 144 96.826668"
   height="96.826668"
   width="144"
   xml:space="preserve"
   id="svg2"
   version="1.1"><metadata
     id="metadata8"><rdf:RDF><cc:Work
         rdf:about=""><dc:format>image/svg+xml</dc:format><dc:type
           rdf:resource="http://purl.org/dc/dcmitype/StillImage" /></cc:Work></rdf:RDF></metadata><defs
     id="defs6" /><g
     transform="matrix(1.3333333,0,0,-1.3333333,0,96.826667)"
     id="g10"><g
       transform="scale(0.1)"
       id="g12"><path
         id="path14"
         style="fill:#302a83;fill-opacity:1;fill-rule:nonzero;stroke:none"
         d="m 792.59,726.199 c 0,-8.582 0,-122.383 0,-130.976 8.562,0 92.058,0 92.058,0 L 781.863,212.715 c 0,0 -125.769,506.355 -127.554,513.484 -6.868,0 -126.262,0 -133.032,0 C 519.402,719.238 383.32,212.684 383.32,212.684 l -94.66,382.539 c 0,0 87.258,0 95.852,0 0,8.593 0,122.394 0,130.976 -9.192,0 -375.31669,0 -384.512,0 0,-8.582 0,-122.383 0,-130.976 8.51172,0 85.1992,0 85.1992,0 0,0 147.0278,-588.08628 148.8048,-595.223 7.074,0 199.418,0 206.391,0 1.832,6.97266 98.523,374.543 98.523,374.543 0,0 91.875,-367.47269 93.641,-374.543 7.07,0 199.414,0 206.386,0 1.856,7.01953 156.563,595.223 156.563,595.223 0,0 75.992,0 84.492,0 0,8.593 0,122.394 0,130.976 -9.08,0 -278.328,0 -287.41,0" /></g></g></svg>